<svg xmlns="http://www.w3.org/2000/svg" width="512" height="512"><g fill="#ff4c3b"><path d="M224 32h64v21.333h-64zm-74.667 352h21.333v21.333h-21.333zm0-42.667h21.333v21.333h-21.333zM192 384h21.333v21.333H192z"/><path d="M458.667 181.333c-14.735 0-36.96 5.086-53.333 20.42V32c0-17.673-14.327-32-32-32H138.667c-17.673 0-32 14.327-32 32v128h-32c-17.673 0-32 14.327-32 32v21.333a31.873 31.873 0 0 0 8.155 21.333 31.875 31.875 0 0 0-8.155 21.333v21.333a31.873 31.873 0 0 0 8.155 21.333 31.875 31.875 0 0 0-8.155 21.333v21.333a31.873 31.873 0 0 0 8.155 21.333 31.875 31.875 0 0 0-8.155 21.333v21.333c0 17.673 14.327 32 32 32h32V480c0 17.673 14.327 32 32 32h234.667c17.673 0 32-14.327 32-32V248.629c1.708-22.838 19.285-41.893 42.667-44.843v297.547h21.333V192c-.001-5.891-4.776-10.667-10.667-10.667zm-320-160h234.667C379.224 21.333 384 26.109 384 32v32H128V32c0-5.891 4.776-10.667 10.667-10.667zM64 341.333V320c0-5.891 4.776-10.667 10.667-10.667h32V352h-32C68.776 352 64 347.224 64 341.333zm0-64V256c0-5.891 4.776-10.667 10.667-10.667h32V288h-32C68.776 288 64 283.224 64 277.333zM64 192c0-5.891 4.776-10.667 10.667-10.667h32V224h-32C68.776 224 64 219.224 64 213.333V192zm10.667 224C68.776 416 64 411.224 64 405.333V384c0-5.891 4.776-10.667 10.667-10.667h32V416h-32zm298.666 74.667H138.667c-5.891 0-10.667-4.776-10.667-10.667v-32h256v32c0 5.891-4.776 10.667-10.667 10.667zm10.667-64H128V85.333h256v341.334z"/><path d="M256 149.333c-58.91 0-106.667 47.756-106.667 106.667S197.09 362.667 256 362.667c58.884-.065 106.602-47.783 106.667-106.667 0-58.91-47.757-106.667-106.667-106.667zm0 192c-47.128 0-85.333-38.205-85.333-85.333s38.205-85.333 85.333-85.333c47.106.053 85.28 38.227 85.333 85.333 0 47.128-38.205 85.333-85.333 85.333z"/><path d="M256 224c5.891 0 10.667 4.776 10.667 10.667H288c0-13.932-8.906-25.778-21.333-30.172V192h-21.333v12.495C232.906 208.888 224 220.735 224 234.667c0 17.673 14.327 32 32 32 5.891 0 10.667 4.776 10.667 10.667s-4.776 10.667-10.667 10.667-10.667-4.776-10.667-10.667H224c0 13.932 8.906 25.778 21.333 30.172V320h21.333v-12.495c12.427-4.394 21.333-16.24 21.333-30.172 0-17.673-14.327-32-32-32-5.891 0-10.667-4.776-10.667-10.667.001-5.89 4.777-10.666 10.668-10.666zm85.333-117.333h21.333V128h-21.333zm0 42.666h21.333v21.333h-21.333zm-42.666-42.666H320V128h-21.333z"/></g></svg>