<svg xmlns="http://www.w3.org/2000/svg" height="512" viewBox="0 -117 679.999 679" width="512"><path d="M12.348 378.383h37.39c4.371 37.715 36.317 66.164 74.278 66.164 37.968 0 69.906-28.45 74.28-66.164h241.79c4.383 37.715 36.316 66.164 74.277 66.164 37.969 0 69.903-28.45 74.285-66.164h78.891c6.883 0 12.461-5.578 12.461-12.461V12.965C680 6.082 674.422.5 667.54.5H235.062c-6.875 0-12.458 5.582-12.458 12.465v69.914h-105.57a12.477 12.477 0 0 0-10.219 5.363l-68.171 97.582-26.668 37.39-9.723 13.837a12.449 12.449 0 0 0-2.25 7.101v121.399a12.473 12.473 0 0 0 12.344 12.832zm111.418 37.387c-27.528 0-49.852-22.32-49.852-49.848 0-27.535 22.324-49.856 49.852-49.856 27.535 0 49.855 22.32 49.855 49.856 0 27.633-22.219 50.133-49.855 50.473zm390.347 0c-27.531 0-49.855-22.32-49.855-49.848 0-27.535 22.324-49.856 49.855-49.856 27.54 0 49.856 22.32 49.856 49.856.004 27.633-22.219 50.133-49.856 50.473zM654.824 25.426V248.77H316.45c-6.883 0-12.465 5.578-12.465 12.46 0 6.883 5.582 12.465 12.465 12.465h338.375v79.762h-66.422c-4.382-37.71-36.32-66.156-74.289-66.156-37.96 0-69.898 28.445-74.277 66.156h-192.31V82.133h89.98c6.884 0 12.466-5.582 12.466-12.465s-5.582-12.465-12.465-12.465h-89.98V25.426zM123.52 107.809h99.703v245.648h-24.926c-4.375-37.71-36.313-66.156-74.281-66.156-37.961 0-69.907 28.445-74.278 66.156h-24.93V248.141l3.739-5.36h152.055c6.882 0 12.46-5.574 12.46-12.457v-92.226c0-6.883-5.578-12.465-12.46-12.465h-69.797zm-30.16 43h74.777v67.296H45.87zm0 0" fill="#ff4c3b"/></svg>