<svg
                      height="512pt"
                      viewBox="-111 0 512 512.00043"
                      width="512pt"
                      xmlns="http://www.w3.org/2000/svg"
                    >
                      <path
                        d="m8.644531 302.082031 7.21875 92.472657c1.109375 13.289062 12.191407 23.523437 25.523438 23.578124h4.898437l11.289063 72.226563c1.90625 12.488281 12.671875 21.691406 25.300781 21.640625h90.25c12.632812.050781 23.398438-9.160156 25.300781-21.648438l11.289063-72.21875h4.898437c13.34375-.054687 24.429688-10.3125 25.523438-23.609374l7.21875-92.496094c4.671875-11.996094 7.449219-24.644532 8.242187-37.492188h17.46875v8.53125c0 4.714844 3.820313 8.535156 8.535156 8.535156 4.710938 0 8.53125-3.820312 8.53125-8.535156v-34.132812c0-4.710938-3.820312-8.535156-8.53125-8.535156-4.714843 0-8.535156 3.824218-8.535156 8.535156v8.535156h-17.46875c-.789062-12.867188-3.566406-25.535156-8.242187-37.546875l-7.21875-92.476563c-1.109375-13.289062-12.191407-23.523437-25.523438-23.578124h-4.898437l-11.289063-72.226563c-1.90625-12.484375-12.671875-21.6914062-25.300781-21.640625h-90.25c-12.632812-.0507812-23.398438 9.160156-25.300781 21.648438l-11.289063 72.21875h-4.898437c-13.34375.058593-24.429688 10.3125-25.523438 23.613281l-7.21875 92.492187c-11.527343 29.609375-11.527343 62.464844 0 92.074219zm25.488281-54.613281h-16.664062c.789062-11.199219 3.332031-22.199219 7.535156-32.609375.902344-2.292969 1.96875-4.503906 3.027344-6.722656l14.414062 8.320312c2.640626 1.546875 5.910157 1.5625 8.566407.039063 2.65625-1.527344 4.289062-4.359375 4.28125-7.417969-.003907-3.0625-1.652344-5.886719-4.316407-7.402344l-14.367187-8.300781c7.664063-11.339844 17.425781-21.105469 28.765625-28.773438l8.300781 14.375c1.515625 2.664063 4.339844 4.3125 7.402344 4.316407 3.058594.007812 5.890625-1.625 7.417969-4.28125 1.523437-2.65625 1.507812-5.925781-.039063-8.566407l-8.304687-14.378906c12.339844-5.917968 25.671875-9.492187 39.3125-10.546875v16.613281c0 4.714844 3.824218 8.535157 8.535156 8.535157s8.535156-3.820313 8.535156-8.535157v-16.613281c1.046875.085938 2.105469.058594 3.148438.171875 12.554687 1.371094 24.78125 4.878906 36.15625 10.375l-8.296875 14.378906c-1.546875 2.640626-1.5625 5.910157-.039063 8.566407 1.527344 2.65625 4.359375 4.289062 7.421875 4.28125 3.058594-.003907 5.882813-1.652344 7.398438-4.316407l8.292969-14.367187c11.347656 7.65625 21.113281 17.421875 28.773437 28.765625l-14.367187 8.300781c-2.664063 1.515625-4.308594 4.339844-4.316407 7.402344-.007812 3.058594 1.628907 5.890625 4.28125 7.417969 2.65625 1.523437 5.925781 1.507812 8.566407-.039063l14.414062-8.320312c1.066406 2.234375 2.132812 4.472656 3.054688 6.828125 4.183593 10.375 6.71875 21.34375 7.507812 32.503906h-16.664062c-4.714844 0-8.535157 3.820312-8.535157 8.53125 0 4.714844 3.820313 8.535156 8.535157 8.535156h16.664062c-.789062 11.195313-3.332031 22.195313-7.535156 32.605469-.902344 2.292969-1.96875 4.503906-3.027344 6.722656l-14.414062-8.320312c-2.640626-1.546875-5.910157-1.5625-8.566407-.039063-2.652343 1.527344-4.289062 4.359375-4.28125 7.421875.007813 3.058594 1.652344 5.882813 4.316407 7.398438l14.367187 8.300781c-7.664063 11.339844-17.425781 21.109375-28.765625 28.777344l-8.300781-14.378906c-2.375-4.046876-7.566407-5.421876-11.628907-3.074219-4.0625 2.34375-5.46875 7.527343-3.152343 11.605469l8.296875 14.378906c-12.339844 5.917968-25.664063 9.492187-39.304688 10.546875v-16.613281c0-4.714844-3.824218-8.535157-8.535156-8.535157s-8.535156 3.820313-8.535156 8.535157v16.613281c-1.046875-.074219-2.105469-.058594-3.148438-.167969-12.554687-1.371094-24.78125-4.882812-36.152344-10.378906l8.292969-14.378906c2.316407-4.078126.910157-9.261719-3.152343-11.605469-4.0625-2.347657-9.253907-.972657-11.628907 3.074219l-8.292969 14.367187c-11.347656-7.65625-21.113281-17.421875-28.773437-28.765625l14.367187-8.300781c2.664063-1.515625 4.3125-4.339844 4.316407-7.398438.007812-3.0625-1.625-5.894531-4.28125-7.421875-2.65625-1.523437-5.925781-1.507812-8.566407.039063l-14.414062 8.320312c-1.066406-2.234375-2.132812-4.472656-3.054688-6.828125-4.183593-10.375-6.71875-21.339844-7.507812-32.5h16.664062c4.714844 0 8.535157-3.820312 8.535157-8.535156 0-4.710938-3.820313-8.53125-8.535157-8.53125zm147.421876 240.246094c-.625 4.164062-4.21875 7.238281-8.429688 7.21875h-90.25c-4.210938.023437-7.800781-3.046875-8.429688-7.210938l-10.878906-69.589844h128.851563zm33.058593-86.648438h-173.226562c-4.464844.015625-8.183594-3.417968-8.535157-7.867187l-4.460937-57.046875c1.527344 1.878906 3.011719 3.789062 4.652344 5.589844 8.871093 9.875 19.238281 18.292968 30.71875 24.953124.066406 0 .109375.117188.179687.160157.070313.027343.136719.054687.203125.085937 15.460938 8.894532 32.609375 14.460938 50.347657 16.34375 4.488281.476563 8.996093.71875 13.507812.714844 8.980469 0 17.9375-.949219 26.71875-2.824219.128906 0 .246094-.078125.367188-.101562 12.90625-2.792969 25.304687-7.5625 36.753906-14.140625l.160156-.066406c.066406-.042969.101562-.113282.164062-.148438 11.480469-6.644531 21.847657-15.058594 30.71875-24.925781 1.636719-1.789063 3.113282-3.695313 4.640626-5.570313l-4.460938 57.042969c-.378906 4.394531-4.042969 7.773437-8.449219 7.800781zm-140.167969-376.78125c.625-4.164062 4.21875-7.238281 8.429688-7.21875h90.25c4.210938-.023437 7.800781 3.046875 8.429688 7.210938l10.878906 69.589844h-128.851563zm-33.058593 86.648438h173.226562c4.464844-.011719 8.183594 3.417968 8.535157 7.867187l4.460937 57.046875c-1.527344-1.878906-3.011719-3.789062-4.648437-5.589844-8.875-9.871093-19.238282-18.292968-30.722657-24.953124-.066406 0-.109375-.117188-.179687-.160157h-.136719c-39.527344-22.808593-88.214844-22.808593-127.742187 0h-.121094c-.058594 0-.09375.101563-.152344.136719-11.484375 6.648438-21.851562 15.0625-30.71875 24.933594-1.640625 1.792968-3.117188 3.695312-4.644531 5.570312l4.464843-57.042968c.371094-4.371094 3.996094-7.746094 8.378907-7.808594zm0 0"
                      />
                      <path
                        d="m98.015625 305.988281c1.941406 1.164063 4.265625 1.507813 6.460937.957031 2.195313-.550781 4.082032-1.949218 5.246094-3.890624l13.15625-21.976563c1.6875.347656 3.402344.523437 5.121094.523437 12.453125.023438 23.109375-8.941406 25.21875-21.214843 2.109375-12.273438-4.9375-24.277344-16.683594-28.417969v-35.703125c0-4.710937-3.824218-8.53125-8.535156-8.53125s-8.535156 3.820313-8.535156 8.53125v35.703125c-7.894532 2.710938-13.945313 9.140625-16.175782 17.1875-2.226562 8.042969-.347656 16.667969 5.023438 23.058594l-13.234375 22.109375c-2.394531 4.035156-1.082031 9.242187 2.9375 11.664062zm29.984375-58.519531c4.710938 0 8.535156 3.820312 8.535156 8.53125 0 4.714844-3.824218 8.535156-8.535156 8.535156s-8.535156-3.820312-8.535156-8.535156c0-4.710938 3.824218-8.53125 8.535156-8.53125zm0 0"
                      />
                      <path
                        d="m93.867188 460.800781h68.265624c4.714844 0 8.535157-3.820312 8.535157-8.535156 0-4.710937-3.820313-8.53125-8.535157-8.53125h-68.265624c-4.714844 0-8.535157 3.820313-8.535157 8.53125 0 4.714844 3.820313 8.535156 8.535157 8.535156zm0 0"
                      />
                      <path
                        d="m162.132812 51.199219h-68.265624c-4.714844 0-8.535157 3.820312-8.535157 8.535156 0 4.710937 3.820313 8.53125 8.535157 8.53125h68.265624c4.714844 0 8.535157-3.820313 8.535157-8.53125 0-4.714844-3.820313-8.535156-8.535157-8.535156zm0 0"
                      />
                    </svg>