<svg
                      height="512pt"
                      viewBox="-64 0 512 512.13948"
                      width="512pt"
                      xmlns="http://www.w3.org/2000/svg"
                    >
                      <path
                        d="m375.496094 435.210938c-4.714844 0-8.535156 3.820312-8.535156 8.53125 0 19.753906-37.273438 51.199218-68.265626 51.199218-29.796874 1.621094-58.796874-9.945312-79.300781-31.632812-23.191406-23.191406-100.179687-107.398438-117.015625-216.746094 0-.109375-.1875-1.277344-.207031-1.382812.003906-.417969-.027344-.835938-.085937-1.253907-1.679688-11.164062-2.617188-22.425781-2.8125-33.714843-.269532-15.363282.757812-30.726563 3.070312-45.917969 6.839844 2.136719 14.261719 1.277343 20.429688-2.371094l.339843-.246094c7.078125-4.140625 11.703125-11.460937 12.398438-19.628906.703125-8.050781-2.542969-15.945313-8.710938-21.171875-3.472656-2.886719-7.183593-5.472656-11.09375-7.730469 3.191407-8.367187 6.933594-16.515625 11.203125-24.386719 4.25 3.289063 9.464844 5.085938 14.839844 5.117188h.9375c8.171875-.011719 15.832031-3.960938 20.585938-10.605469 4.757812-6.554687 6.007812-15.023437 3.34375-22.671875-1.746094-4.816406-3.953126-9.449218-6.589844-13.84375 21.664062-19.433594 49.835937-30.023437 78.933594-29.675781 102.570312 0 127.148437 108.125 128.179687 112.722656.847656 3.9375 4.328125 6.746094 8.355469 6.742188.609375-.003907 1.214844-.070313 1.808594-.195313 4.597656-.992187 7.527343-5.519531 6.546874-10.121094-.300781-1.261718-28.425781-126.2148432-144.890624-126.2148432-32.726563-.4023438-64.445313 11.3203122-89.042969 32.9101562-23.882813-25.550781-62.011719-31.742187-92.75-15.058594-30.738281 16.6875-46.320313 52.03125-37.90625 85.980469 1.476562 6.214844 3.773437 12.207031 6.828125 17.816406-15.820313 13.960938-25.210938 33.804688-25.96875 54.890625-.761719 21.082031 7.175781 41.554688 21.949218 56.617188 14.21875 14.636719 33.789063 22.855469 54.195313 22.757812 3.492187-.015625 6.976563-.261719 10.4375-.742187 19.625 111.65625 96.988281 196.53125 120.652344 220.160156 23.6875 24.890625 57.015625 38.273438 91.339843 36.667969 38.28125 0 85.332032-37.640625 85.332032-68.269531 0-2.261719-.898438-4.433594-2.496094-6.03125-1.601562-1.601563-3.773438-2.5-6.035156-2.5zm-309.136719-232.644532c-6.804687-3.066406-11.964844-8.910156-14.15625-16.042968-2.695313-8.820313-.367187-18.40625 6.074219-25.003907 2.601562-2.660156 5.742187-4.730469 9.214844-6.066406.292968-.070313.574218-.160156.855468-.265625 5.871094-2.1875 12.363282-2.019531 18.117188.460938-2.785156 16.035156-4.199219 32.28125-4.21875 48.554687-5.332032 1.164063-10.902344.589844-15.886719-1.636719zm8.59375-99.96875c-5.800781-6.363281-8.042969-15.203125-5.976563-23.5625 2.578126-10.222656 11.171876-17.8125 21.636719-19.105468 10.460938-1.296876 20.644531 3.96875 25.640625 13.253906-6.324218 10.492187-11.730468 21.507812-16.164062 32.929687-8.121094-2.585937-16.621094-3.773437-25.136719-3.515625zm-27.941406-54.296875c11.585937-14.660156 29.363281-23.054687 48.042969-22.675781 18.679687.375 36.105468 9.480469 47.089843 24.59375 3.558594 4.875 6.371094 10.25 8.34375 15.949219.828125 2.425781.421875 5.101562-1.089843 7.167969-1.535157 2.1875-4.039063 3.484374-6.710938 3.472656h-.9375c-3.640625-.171875-6.777344-2.613282-7.839844-6.101563-.09375-.242187-.199218-.484375-.316406-.714843-6.707031-17.371094-23.90625-28.386719-42.488281-27.214844s-34.261719 14.257812-38.734375 32.335937c-2.378906 10.207031-1 20.929688 3.894531 30.199219-5.550781 1.550781-10.902344 3.730469-15.960937 6.492188-1.929688-3.773438-3.417969-7.753907-4.4375-11.871094-4.417969-18.007813-.308594-37.050782 11.144531-51.632813zm-12.679688 173.046875c-12.316406-12.484375-18.535156-29.742187-17.015625-47.214844 1.519532-17.46875 10.628906-33.394531 24.917969-43.5625 1.332031-.972656 2.75-1.851562 4.214844-2.738281 7.828125-4.726562 16.667969-7.515625 25.789062-8.132812 9.703125-.78125 19.449219.828125 28.390625 4.683593.273438.171876.558594.328126.851563.46875 5.160156 2.371094 9.96875 5.445313 14.285156 9.132813 1.953125 1.636719 2.96875 4.128906 2.722656 6.664063-.265625 2.796874-1.925781 5.273437-4.410156 6.585937l-.375.257813c-3.246094 1.648437-7.167969 1.148437-9.890625-1.261719-.230469-.171875-.460938-.335938-.699219-.488281-.738281-.617188-1.511719-1.1875-2.324219-1.707032h-.042968c-11.046875-7.65625-25.105469-9.515625-37.765625-5l-.511719.160156c-.097656.035157-.191406.070313-.28125.113282-.09375 0-.1875 0-.28125.078125-.097656.074219-.136719.09375-.214844.125-20.390625 7.570312-31.761718 29.328125-26.335937 50.390625s25.894531 34.617187 47.40625 31.394531c.324219 5.613281.828125 11.304687 1.515625 17.066406-18.40625 2.601563-36.953125-3.714843-49.945313-17.015625zm0 0"
                      />
                      <path
                        d="m269.316406 71.996094c19.8125 3.695312 32.988282 17.800781 38.101563 40.800781 15.5625 70.058594-55.46875 118.570313-56.152344 119.046875-3.917969 2.617188-4.976563 7.917969-2.359375 11.839844 2.621094 3.921875 7.921875 4.976562 11.839844 2.359375 3.328125-2.21875 81.460937-55.382813 63.328125-136.953125-6.605469-29.71875-24.953125-48.886719-51.628907-53.878906-37.367187-6.953126-85.160156 15.429687-108.867187 50.996093-34.355469 51.53125-36.402344 120.847657-26.863281 168.578125.8125 3.976563 4.320312 6.832032 8.382812 6.824219.570313.003906 1.144532-.054687 1.703125-.171875 4.621094-.921875 7.621094-5.414062 6.699219-10.035156-8.875-44.371094-7.132812-108.535156 24.328125-155.722656 19.816406-29.808594 60.871094-49.460938 91.488281-43.683594zm0 0"
                      />
                      <path
                        d="m366.050781 362.222656c3.730469-6.03125 4.363281-13.484375 1.707031-20.058594-4.515624-9.386718-15.761718-11.734374-26.632812-14.023437-7.46875-1.570313-16.761719-3.523437-18.773438-7.3125-.917968-3.523437-.4375-7.265625 1.339844-10.445313 12.261719-30.660156 12.566406-54.613281.851563-64.167968-4.480469-3.636719-14.386719-8.097656-30.566407 2.695312l-51.199218 34.132813c-3.921875 2.617187-4.980469 7.914062-2.363282 11.835937 2.613282 3.921875 7.914063 4.980469 11.835938 2.363282l51.199219-34.132813c5.972656-3.949219 9.496093-4.335937 10.34375-3.644531 2.8125 2.28125 5.21875 16.675781-5.976563 44.570312-3.917968 7.777344-4.109375 16.910156-.527344 24.847656 5.777344 10.789063 18.773438 13.535157 30.308594 15.960938 5.164063.644531 10.164063 2.230469 14.753906 4.675781-.042968 1.804688-.585937 3.5625-1.566406 5.074219-4.105468 8.203125-21.90625 12.066406-44.332031 9.59375-42.367187-4.652344-92.476563-29.917969-101.898437-67.585938-15.359376-61.300781 44.886718-100.007812 47.457031-101.628906 4.003906-2.5 5.226562-7.777344 2.722656-11.78125-2.5-4.007812-7.773437-5.226562-11.777344-2.726562-.734375.460937-73.320312 46.804687-54.957031 120.242187 11.410156 45.636719 67.285156 74.992188 116.582031 80.410157 5.007813.554687 10.035157.839843 15.070313.851562 23.417968.054688 39.964844-6.882812 46.398437-19.746094zm0 0"
                      />
                      <path
                        d="m340.253906 431.027344-19.199218-34.132813c-1.511719-2.6875-4.359376-4.351562-7.441407-4.351562h-38.402343c-3.082032 0-5.929688 1.664062-7.441407 4.351562l-19.199219 34.132813c-.101562.179687-.136718.386718-.230468.574218s-.179688.441407-.265625.671876c-.707031 1.894531-.707031 3.980468 0 5.871093.085937.230469.164062.453125.265625.675781.101562.222657.128906.390626.230468.570313l19.199219 34.132813c1.511719 2.691406 4.359375 4.355468 7.441407 4.351562h38.402343c3.082031.003906 5.929688-1.660156 7.441407-4.351562l19.199218-34.132813c.101563-.179687.144532-.382813.230469-.570313s.1875-.445312.261719-.667968c.710937-1.898438.710937-3.988282 0-5.886719-.074219-.222656-.160156-.445313-.261719-.664063-.101563-.222656-.128906-.394531-.230469-.574218zm-31.632812 29.78125h-28.417969l-9.597656-17.066406h2.492187c4.710938 0 8.53125-3.820313 8.53125-8.53125 0-4.714844-3.820312-8.535157-8.53125-8.535157h-2.476562l9.601562-17.066406h28.414063l9.601562 17.066406h-2.476562c-4.710938 0-8.53125 3.820313-8.53125 8.535157 0 4.710937 3.820312 8.53125 8.53125 8.53125h2.476562zm0 0"
                      />
                    </svg>