  <svg
                      version="1.1"
                      id="Layer_1"
                      xmlns="http://www.w3.org/2000/svg"
                      xmlns:xlink="http://www.w3.org/1999/xlink"
                      x="0px"
                      y="0px"
                      viewBox="0 0 512 512"
                      style="enable-background:new 0 0 512 512;"
                      xml:space="preserve"
                    >
                      <g>
                        <g>
                          <path
                            d="M371.769,176.364l30.47-30.47l-21.71-25.265h-52.305l-21.71,25.265l30.47,30.47
			c-29.557,3.279-57.658,14.863-80.982,33.507c-23.324-18.644-51.425-30.228-80.982-33.507l30.47-30.47l-21.71-25.265h-52.305
			l-21.71,25.265l30.47,30.47C61.471,185.049,0,251.988,0,333.024c0,86.914,70.71,157.625,157.625,157.625
			c35.834,0,70.513-12.2,98.375-34.472c27.862,22.272,62.542,34.472,98.375,34.472C441.29,490.649,512,419.938,512,333.024
			C512,251.988,450.529,185.049,371.769,176.364z M327.237,145.11l7.97-9.275h38.337l7.969,9.275l-27.138,27.138L327.237,145.11z
			 M130.486,145.11l7.97-9.275h38.337l7.969,9.275l-27.138,27.138L130.486,145.11z M157.625,475.441
			c-78.529,0-142.417-63.888-142.417-142.417s63.888-142.417,142.417-142.417c34.337,0,67.503,12.392,93.387,34.894
			c8.035,6.984,15.308,14.898,21.618,23.522c17.933,24.508,27.412,53.555,27.412,84.002c0,27.573-7.775,54-22.563,76.946
			c-0.192-0.192-0.376-0.39-0.566-0.583c-0.834-0.847-1.659-1.702-2.465-2.574c-0.357-0.386-0.705-0.781-1.055-1.172
			c-0.661-0.736-1.315-1.479-1.955-2.233c-0.368-0.433-0.731-0.869-1.092-1.308c-0.618-0.751-1.225-1.513-1.823-2.28
			c-0.337-0.432-0.675-0.863-1.005-1.3c-0.655-0.867-1.293-1.748-1.921-2.636c-0.195-0.275-0.396-0.545-0.589-0.823
			c10.887-18.81,16.619-40.153,16.619-62.037c0-21.925-5.759-43.301-16.685-62.137l0.061-0.096l-2.58-4.072
			c-4.983-7.859-10.817-15.117-17.407-21.662c-2.197-2.182-4.478-4.285-6.839-6.304l-6.234-5.332l-0.161,0.22
			c-21.339-15.929-47.37-24.62-74.156-24.62c-68.375,0-124.002,55.628-124.002,124.002s55.627,124.001,124.002,124.001
			c26.853,0,52.947-8.733,74.315-24.737c0.095,0.118,0.196,0.231,0.291,0.348c0.539,0.661,1.092,1.311,1.641,1.964
			c0.423,0.501,0.841,1.007,1.269,1.503c0.586,0.677,1.185,1.342,1.782,2.01c0.409,0.457,0.812,0.92,1.226,1.372
			c0.656,0.716,1.326,1.418,1.995,2.122c0.37,0.389,0.734,0.787,1.108,1.172c0.815,0.841,1.646,1.666,2.48,2.488
			c0.228,0.225,0.449,0.456,0.677,0.68C219.606,465.022,189.107,475.441,157.625,475.441z M289.077,246.04
			c18.767-14.095,41.689-21.81,65.298-21.81c59.989,0,108.794,48.805,108.794,108.794c0,59.989-48.805,108.792-108.794,108.792
			c-23.608,0-46.531-7.715-65.298-21.81c17.142-25.819,26.172-55.735,26.172-86.984C315.249,301.775,306.22,271.858,289.077,246.04z
			 M256,379.489c-6.834-14.454-10.418-30.285-10.418-46.465c0-16.18,3.584-32.012,10.418-46.465
			c6.834,14.454,10.418,30.285,10.418,46.465C266.418,349.204,262.834,365.035,256,379.489z M222.923,246.04
			c-17.142,25.819-26.172,55.735-26.172,86.984c0,31.248,9.029,61.165,26.172,86.984c-18.767,14.095-41.69,21.81-65.298,21.81
			c-59.989,0-108.794-48.804-108.794-108.793S97.636,224.23,157.625,224.23C181.234,224.23,204.156,231.945,222.923,246.04z
			 M354.375,475.441c-34.337,0-67.503-12.392-93.387-34.894c-8.034-6.983-15.308-14.898-21.618-23.522
			c-17.933-24.508-27.412-53.555-27.412-84.001c0-27.573,7.775-54.001,22.562-76.946c0.194,0.194,0.38,0.394,0.572,0.589
			c0.833,0.845,1.656,1.698,2.46,2.569c0.355,0.384,0.701,0.778,1.05,1.167c0.664,0.739,1.32,1.485,1.964,2.243
			c0.364,0.429,0.724,0.862,1.082,1.296c0.622,0.756,1.233,1.522,1.835,2.294c0.334,0.428,0.669,0.855,0.997,1.289
			c0.655,0.867,1.292,1.748,1.921,2.635c0.196,0.277,0.398,0.548,0.591,0.827c-10.887,18.81-16.619,40.153-16.619,62.038
			c0,21.925,5.759,43.3,16.685,62.136l-0.062,0.096l2.581,4.072c6.643,10.478,14.8,19.888,24.245,27.966l6.234,5.332l0.161-0.221
			c21.34,15.929,47.369,24.62,74.156,24.62c68.375,0,124.002-55.626,124.002-124.001s-55.626-124.001-124.002-124.001
			c-26.853,0-52.947,8.733-74.315,24.738c-0.095-0.118-0.196-0.231-0.291-0.348c-0.538-0.66-1.089-1.309-1.638-1.96
			c-0.424-0.503-0.844-1.011-1.274-1.508c-0.58-0.67-1.173-1.329-1.764-1.989c-0.416-0.464-0.825-0.935-1.246-1.394
			c-0.642-0.701-1.298-1.387-1.951-2.075c-0.385-0.406-0.763-0.818-1.153-1.221c-0.781-0.805-1.577-1.594-2.373-2.382
			c-0.262-0.259-0.516-0.525-0.78-0.783c24.804-19.075,55.302-29.493,86.786-29.493c78.529,0,142.417,63.888,142.417,142.417
			C496.792,411.554,432.904,475.441,354.375,475.441z"
                          />
                        </g>
                      </g>
                      <g>
                        <g>
                          <rect x="248.396" y="21.351" width="15.208" height="47.344" />
                        </g>
                      </g>
                      <g>
                        <g>
                          <rect
                            x="294.983"
                            y="52.217"
                            transform="matrix(0.4198 -0.9076 0.9076 0.4198 130.5873 323.9224)"
                            width="47.343"
                            height="15.207"
                          />
                        </g>
                      </g>
                      <g>
                        <g>
                          <rect
                            x="185.738"
                            y="36.156"
                            transform="matrix(0.9076 -0.4198 0.4198 0.9076 -7.2537 86.6932)"
                            width="15.207"
                            height="47.343"
                          />
                        </g>
                      </g>
                    </svg>