<svg
                      height="382pt"
                      viewBox="0 -5 382.40085 382"
                      width="382pt"
                      xmlns="http://www.w3.org/2000/svg"
                    >
                      <path
                        d="m296.328125 83.535156c-2.421875 0-4.761719-1.289062-6-3.558594-1.808594-3.308593-.589844-7.457031 2.722656-9.261718 3.808594-2.078125 6.175781-6.0625 6.175781-10.398438 0-6.523437-5.304687-11.832031-11.832031-11.832031-4.171875 0-8.082031 2.234375-10.203125 5.835937-1.90625 3.25-6.089844 4.335938-9.347656 2.410157-3.246094-1.910157-4.328125-6.09375-2.414062-9.347657 4.566406-7.742187 12.980468-12.550781 21.964843-12.550781 14.050781 0 25.484375 11.433594 25.484375 25.484375 0 9.335938-5.09375 17.914063-13.289062 22.382813-1.039063.566406-2.160156.835937-3.261719.835937zm0 0"
                      />
                      <path
                        d="m90.296875 85.203125c-.566406 0-1.148437-.070313-1.722656-.21875-11.222657-2.921875-19.054688-13.066406-19.054688-24.667969 0-14.046875 11.433594-25.484375 25.484375-25.484375 9.386719 0 17.984375 5.136719 22.441406 13.402344 1.789063 3.320313.546876 7.460937-2.769531 9.25-3.3125 1.785156-7.460937.546875-9.25-2.769531-2.070312-3.839844-6.0625-6.226563-10.421875-6.226563-6.523437 0-11.832031 5.304688-11.832031 11.832031 0 5.386719 3.636719 10.097657 8.839844 11.453126 3.652343.949218 5.839843 4.679687 4.886719 8.328124-.800782 3.070313-3.570313 5.101563-6.601563 5.101563zm0 0"
                      />
                      <path
                        d="m191.199219 373.125c-24.214844 0-48.429688-6.265625-70.027344-18.796875-42.421875-24.621094-75.292969-61.542969-97.695313-109.738281-15.359374-33.039063-23.476562-70.839844-23.476562-109.320313v-18.835937c0-3.53125 2.699219-6.480469 6.21875-6.800782.164062-.011718 16.816406-1.601562 37.171875-9.488281 3.488281-1.367187 7.464844.378907 8.832031 3.898438 1.363282 3.515625-.382812 7.46875-3.898437 8.832031-14.679688 5.6875-27.457031 8.351562-34.667969 9.519531v12.875c0 36.503907 7.675781 72.316407 22.203125 103.566407 21.203125 45.609374 52.214844 80.492187 92.167969 103.683593 38.96875 22.609375 87.382812 22.609375 126.347656 0 42.171875-24.472656 74.300781-61.859375 95.5-111.125 12.523438-29.109375 18.875-61.328125 18.875-95.769531v-13.414062c-9.3125-1.847657-28.265625-6.714844-49.308594-18.472657-3.292968-1.839843-4.46875-6-2.628906-9.289062 1.835938-3.289063 5.996094-4.46875 9.289062-2.628907 26.792969 14.976563 50.027344 17.808594 50.257813 17.835938 3.445313.394531 6.042969 3.3125 6.042969 6.78125v19.1875c0 36.308594-6.722656 70.347656-19.988282 101.167969-22.382812 52.015625-56.425781 91.5625-101.1875 117.535156-21.597656 12.53125-45.8125 18.796875-70.027343 18.796875zm0 0"
                      />
                      <path
                        d="m90.296875 86.324219c-1.84375 0-3.679687-.742188-5.027344-2.203125-2.550781-2.773438-2.375-7.09375.398438-9.648438 9.933593-9.140625 17.871093-19.804687 23.613281-31.71875v-35.726562c0-3.769532 3.054688-6.828125 6.824219-6.828125h150.1875c3.769531 0 6.828125 3.058593 6.828125 6.828125v35.277344c7.515625 11.683593 16.597656 22.195312 27.007812 31.277343 2.839844 2.476563 3.136719 6.789063.660156 9.632813-2.472656 2.847656-6.785156 3.136718-9.632812.660156-11.914062-10.390625-22.226562-22.492188-30.652344-35.964844-.675781-1.089844-1.039062-2.339844-1.039062-3.621094v-30.433593h-136.53125v30.429687c0 .996094-.21875 1.976563-.636719 2.878906-6.539063 14.082032-15.753906 26.652344-27.378906 37.359376-1.3125 1.203124-2.972657 1.800781-4.621094 1.800781zm0 0"
                      />
                      <path
                        d="m295.410156 224.699219c-15.496094 0-28.101562-12.609375-28.101562-28.105469s12.605468-28.105469 28.101562-28.105469 28.105469 12.609375 28.105469 28.105469-12.609375 28.105469-28.105469 28.105469zm0-42.554688c-7.964844 0-14.449218 6.484375-14.449218 14.449219 0 7.972656 6.484374 14.457031 14.449218 14.457031 7.96875 0 14.453125-6.484375 14.453125-14.457031 0-7.96875-6.484375-14.449219-14.453125-14.449219zm0 0"
                      />
                      <path
                        d="m311.441406 182.675781c-14.425781 0-26.160156-11.734375-26.160156-26.160156 0-14.429687 11.734375-26.164063 26.160156-26.164063 14.429688 0 26.164063 11.734376 26.164063 26.164063 0 14.425781-11.734375 26.160156-26.164063 26.160156zm0-38.671875c-6.894531 0-12.507812 5.613282-12.507812 12.511719 0 6.894531 5.613281 12.507813 12.507812 12.507813 6.898438 0 12.511719-5.613282 12.511719-12.507813 0-6.898437-5.613281-12.511719-12.511719-12.511719zm0 0"
                      />
                      <path
                        d="m86.988281 224.699219c-15.496093 0-28.105469-12.609375-28.105469-28.105469s12.609376-28.105469 28.105469-28.105469c15.496094 0 28.105469 12.609375 28.105469 28.105469s-12.605469 28.105469-28.105469 28.105469zm0-42.554688c-7.96875 0-14.453125 6.484375-14.453125 14.449219 0 7.972656 6.484375 14.457031 14.453125 14.457031s14.449219-6.484375 14.449219-14.457031c0-7.96875-6.480469-14.449219-14.449219-14.449219zm0 0"
                      />
                      <path
                        d="m70.957031 182.675781c-14.425781 0-26.164062-11.734375-26.164062-26.160156 0-14.429687 11.738281-26.164063 26.164062-26.164063s26.164063 11.734376 26.164063 26.164063c0 14.425781-11.738282 26.160156-26.164063 26.160156zm0-38.671875c-6.898437 0-12.511719 5.613282-12.511719 12.511719 0 6.894531 5.613282 12.507813 12.511719 12.507813 6.894531 0 12.507813-5.613282 12.507813-12.507813 0-6.898437-5.613282-12.511719-12.507813-12.511719zm0 0"
                      />
                      <path
                        d="m311.441406 107.085938c-12.527344 0-22.714844-10.191407-22.714844-22.71875 0-12.523438 10.1875-22.71875 22.714844-22.71875s22.71875 10.195312 22.71875 22.71875c0 12.527343-10.191406 22.71875-22.71875 22.71875zm0-31.785157c-4.996094 0-9.0625 4.066407-9.0625 9.066407 0 4.996093 4.066406 9.066406 9.0625 9.066406 5 0 9.066406-4.070313 9.066406-9.066406 0-5-4.066406-9.066407-9.066406-9.066407zm0 0"
                      />
                      <path
                        d="m70.957031 107.085938c-12.527343 0-22.71875-10.191407-22.71875-22.71875 0-12.523438 10.191407-22.71875 22.71875-22.71875 12.523438 0 22.714844 10.195312 22.714844 22.71875 0 12.527343-10.1875 22.71875-22.714844 22.71875zm0-31.785157c-5 0-9.066406 4.066407-9.066406 9.066407 0 4.996093 4.066406 9.066406 9.066406 9.066406 4.996094 0 9.0625-4.070313 9.0625-9.066406 0-5-4.066406-9.066407-9.0625-9.066407zm0 0"
                      />
                      <path
                        d="m319.460938 141.917969c-14.050782 0-25.484376-11.433594-25.484376-25.484375 0-7.980469 3.628907-15.347656 9.957032-20.214844 2.988281-2.292969 7.273437-1.738281 9.574218 1.253906 2.296876 2.988282 1.738282 7.277344-1.253906 9.570313-2.9375 2.261719-4.625 5.679687-4.625 9.386719 0 6.523437 5.304688 11.832031 11.832032 11.832031 6.523437 0 11.828124-5.304688 11.828124-11.832031 0-5.113282-3.253906-9.628907-8.101562-11.234376-3.582031-1.1875-5.515625-5.050781-4.332031-8.632812 1.1875-3.574219 5.050781-5.511719 8.632812-4.328125 10.4375 3.464844 17.457031 13.191406 17.457031 24.195313-.003906 14.054687-11.433593 25.488281-25.484374 25.488281zm0 0"
                      />
                      <path
                        d="m62.941406 141.917969c-14.050781 0-25.484375-11.433594-25.484375-25.484375 0-14.054688 11.433594-25.488282 25.484375-25.488282 14.050782 0 25.484375 11.433594 25.484375 25.488282-.003906 14.050781-11.4375 25.484375-25.484375 25.484375zm0-37.316407c-6.523437 0-11.832031 5.308594-11.832031 11.832032 0 6.527344 5.304687 11.832031 11.832031 11.832031 6.523438 0 11.828125-5.304687 11.828125-11.832031 0-6.523438-5.304687-11.832032-11.828125-11.832032zm0 0"
                      />
                      <path
                        d="m111.035156 256.761719c-15.496094 0-28.101562-12.605469-28.101562-28.101563s12.605468-28.105468 28.101562-28.105468 28.109375 12.609374 28.109375 28.105468-12.613281 28.101563-28.109375 28.101563zm0-42.554688c-7.964844 0-14.449218 6.484375-14.449218 14.453125s6.484374 14.453125 14.449218 14.453125c7.972656 0 14.453125-6.484375 14.453125-14.453125s-6.480469-14.453125-14.453125-14.453125zm0 0"
                      />
                      <path
                        d="m143.101562 283.582031c-17.027343 0-30.875-13.847656-30.875-30.875 0-17.023437 13.847657-30.875 30.875-30.875 17.023438 0 30.875 13.851563 30.875 30.875 0 17.027344-13.851562 30.875-30.875 30.875zm0-48.09375c-9.496093 0-17.222656 7.722657-17.222656 17.21875 0 9.496094 7.726563 17.222657 17.222656 17.222657 9.5 0 17.222657-7.726563 17.222657-17.222657 0-9.496093-7.722657-17.21875-17.222657-17.21875zm0 0"
                      />
                      <path
                        d="m271.363281 256.761719c-15.496093 0-28.105469-12.605469-28.105469-28.101563s12.609376-28.105468 28.105469-28.105468c15.496094 0 28.105469 12.609374 28.105469 28.105468s-12.609375 28.101563-28.105469 28.101563zm0-42.554688c-7.96875 0-14.453125 6.484375-14.453125 14.453125s6.484375 14.453125 14.453125 14.453125 14.449219-6.484375 14.449219-14.453125-6.480469-14.453125-14.449219-14.453125zm0 0"
                      />
                      <path
                        d="m239.296875 283.582031c-17.023437 0-30.875-13.847656-30.875-30.875 0-17.023437 13.851563-30.875 30.875-30.875 17.027344 0 30.878906 13.851563 30.878906 30.875-.003906 17.027344-13.851562 30.875-30.878906 30.875zm0-48.09375c-9.496094 0-17.21875 7.722657-17.21875 17.21875 0 9.496094 7.722656 17.222657 17.21875 17.222657s17.222656-7.726563 17.222656-17.222657c0-9.496093-7.726562-17.21875-17.222656-17.21875zm0 0"
                      />
                      <path
                        d="m191.199219 291.601562c-17.027344 0-30.875-13.851562-30.875-30.878906 0-17.023437 13.847656-30.875 30.875-30.875 17.027343 0 30.878906 13.851563 30.878906 30.875 0 17.027344-13.851563 30.878906-30.878906 30.878906zm0-48.097656c-9.496094 0-17.222657 7.722656-17.222657 17.222656 0 9.496094 7.726563 17.222657 17.222657 17.222657 9.496093 0 17.222656-7.726563 17.222656-17.222657 0-9.5-7.726563-17.222656-17.222656-17.222656zm0 0"
                      />
                    </svg>