<svg
                      height="512pt"
                      viewBox="0 0 512 512.00089"
                      width="512pt"
                      xmlns="http://www.w3.org/2000/svg"
                    >
                      <path
                        d="m273.585938 17.230469c-4.613282-.140625-9.089844 1.59375-12.402344 4.808593-3.316406 3.214844-5.183594 7.636719-5.183594 12.257813v16.902344h-51.199219v-17.066407c0-18.851562-15.28125-34.132812-34.132812-34.132812h-8.535157c-14.136718 0-25.597656 11.460938-25.597656 25.601562 0 4.710938 3.820313 8.53125 8.53125 8.53125 4.714844 0 8.535156-3.820312 8.535156-8.53125 0-4.714843 3.820313-8.535156 8.53125-8.535156h8.535157c9.425781 0 17.066406 7.640625 17.066406 17.066406v17.066407h-179.199219c-4.714844 0-8.535156 3.820312-8.535156 8.535156 0 4.710937 3.820312 8.53125 8.535156 8.53125h179.199219v17.066406c0 9.425781-7.640625 17.066407-17.066406 17.066407h-8.535157c-4.710937 0-8.53125-3.820313-8.53125-8.53125 0-4.714844-3.820312-8.535157-8.535156-8.535157-4.710937 0-8.53125 3.820313-8.53125 8.535157 0 14.136718 11.460938 25.597656 25.597656 25.597656h8.535157c18.851562 0 34.132812-15.28125 34.132812-34.132813v-17.066406h51.199219v17.308594c.046875 9.148437 7.285156 16.644531 16.425781 17.011719 43.097657 2.101562 83.578125 21.289062 112.480469 53.320312 28.90625 32.035156 43.851562 74.265625 41.53125 117.347656-5.046875 82.421875-70.761719 148.136719-153.183594 153.183594-56.496094 3.054688-110.5-23.5625-142.488281-70.234375-31.992187-46.667969-37.335937-106.636719-14.105469-158.230469 6.628906-15.488281 3.507813-33.425781-7.960937-45.769531-11.46875-12.339844-29.132813-16.761719-45.066407-11.285156-11.285156 3.914062-20.453124 12.320312-25.328124 23.230469-14.074219 31.589843-21.308594 65.800781-21.238282 100.386718.125 68.308594 28.367188 133.558594 78.089844 180.402344 45.667969 43.222656 106.207031 67.230469 169.085938 67.0625 5.34375 0 10.707031-.167969 16.09375-.503906 131.488281-8.519532 233.238281-118.578125 231.441406-250.328125-1.800782-131.75-106.519532-238.984375-238.191406-243.914063zm220.851562 262.058593c-5.898438 91.898438-65.953125 171.457032-152.71875 202.320313-86.761719 30.859375-183.570312 7.089844-246.175781-60.445313-62.605469-67.535156-78.980469-165.863281-41.644531-250.046874 4.136718-9.359376 13.394531-15.410157 23.628906-15.445313 8.515625.035156 16.457031 4.300781 21.1875 11.382813 4.726562 7.082031 5.628906 16.050781 2.398437 23.929687-25.664062 57.011719-19.753906 123.277344 15.589844 174.851563 35.339844 51.574218 95.007813 80.996093 157.4375 77.640624 91.113281-5.578124 163.761719-78.222656 169.34375-169.335937 2.554687-47.613281-13.972656-94.28125-45.921875-129.675781-31.949219-35.394532-76.691406-56.59375-124.316406-58.910156l-.410156 8.535156.230468-8.515625-.050781-25.601563c0-.085937.050781-.164062.050781-.246094 0-.085937-.050781-.164062-.050781-.257812l-.050781-25.191406c62.160156 2.28125 120.757812 29.601562 162.46875 75.746094 41.710937 46.140624 62.992187 107.191406 59.003906 169.265624zm0 0"
                      />
                    </svg>