<svg
                      height="512pt"
                      viewBox="0 -26 512.00066 512"
                      width="512pt"
                      xmlns="http://www.w3.org/2000/svg"
                    >
                      <path
                        d="m392.535156 276.480469v-11.949219c0-18.851562 15.28125-34.132812 34.132813-34.132812 2.300781-.003907 4.503906.941406 6.082031 2.613281 1.582031 1.5625 2.46875 3.695312 2.449219 5.921875.003906 2.296875-.941407 4.496094-2.609375 6.074218-1.558594 1.59375-3.695313 2.480469-5.921875 2.457032h-8.535157c-4.710937 0-8.53125 3.820312-8.53125 8.535156 0 4.710938 3.820313 8.53125 8.53125 8.53125h8.535157c14.136719 0 25.597656-11.460938 25.597656-25.597656 0-14.140625-11.460937-25.601563-25.597656-25.601563-28.265625.027344-51.171875 22.933594-51.199219 51.199219v6.640625c-8.085938-2.277344-16.617188-4.351563-25.601562-6.222656v-34.550781c0-4.710938-3.820313-8.53125-8.535157-8.53125-4.710937 0-8.53125 3.820312-8.53125 8.53125v31.429687c-8.175781-1.316406-16.707031-2.421875-25.601562-3.320313v-36.640624c0-4.714844-3.820313-8.535157-8.53125-8.535157-4.714844 0-8.535157 3.820313-8.535157 8.535157v35.25c-8.242187-.53125-16.777343-.867188-25.597656-1.007813v-93.976563c.011719-6.417968 1.488282-12.746093 4.324219-18.5 14.550781-3.234374 27.367187-11.78125 35.941406-23.972656.8125-.058594 1.546875-.195312 2.398438-.195312h17.066406c23.554687.027344 42.640625 19.113281 42.667969 42.667968 0 6.769532-2.675782 13.265626-7.441406 18.074219-10.140626 9.640625-26.046876 9.675781-36.230469.085938-4.8125-4.820313-7.519531-11.351563-7.527344-18.160157v-8.535156c0-4.710937-3.820313-8.53125-8.535156-8.53125-4.710938 0-8.53125 3.820313-8.53125 8.53125v8.535156c0 23.5625 19.101562 42.664063 42.664062 42.664063 23.566407 0 42.667969-19.101563 42.667969-42.664063-.039062-32.976562-26.757812-59.695312-59.734375-59.734374h-11.09375c1.683594-5.535157 2.542969-11.28125 2.5625-17.066407 0-31.054687-48.351563-77.765625-53.863281-82.996093-3.289063-3.113282-8.441406-3.113282-11.734375 0-5.519531 5.230468-53.871094 51.941406-53.871094 82.996093.019531 5.785157.882813 11.53125 2.5625 17.066407h-11.09375c-32.976563.039062-59.695313 26.757812-59.734375 59.734374 0 23.5625 19.101562 42.664063 42.667969 42.664063 23.5625 0 42.664062-19.101563 42.664062-42.664063v-8.535156c0-4.710937-3.820312-8.53125-8.53125-8.53125-4.714843 0-8.535156 3.820313-8.535156 8.53125v8.535156c0 6.769532-2.675781 13.265626-7.441406 18.074219-10.140625 9.640625-26.042969 9.675781-36.230469.085938-4.8125-4.820313-7.515625-11.351563-7.527344-18.160157.027344-23.554687 19.113282-42.640624 42.667969-42.667968h17.066406c.851563 0 1.585938.136718 2.398438.195312 8.574219 12.191406 21.390625 20.738282 35.941406 23.972656 2.835937 5.753907 4.316406 12.082032 4.328125 18.5v93.976563c-8.824219.136719-17.359375.472656-25.601562 1.007813v-35.25c0-4.714844-3.820313-8.535157-8.535157-8.535157-4.710937 0-8.53125 3.820313-8.53125 8.535157v36.640624c-8.886719.898438-17.417969 2.003907-25.601562 3.320313v-31.429687c0-4.710938-3.820313-8.53125-8.53125-8.53125-4.714844 0-8.535157 3.820312-8.535157 8.53125v34.550781c-8.988281 1.851562-17.519531 3.921875-25.597656 6.222656v-6.640625c-.03125-28.265625-22.9375-51.171875-51.203125-51.199219-14.136719 0-25.597656 11.460938-25.597656 25.601563 0 14.136718 11.460937 25.597656 25.597656 25.597656h8.535157c4.710937 0 8.53125-3.820312 8.53125-8.53125 0-4.714844-3.820313-8.535156-8.53125-8.535156h-8.535157c-2.300781.007812-4.5-.9375-6.082031-2.609375-1.582031-1.5625-2.464844-3.699219-2.449219-5.921875-.003906-2.300782.941407-4.496094 2.609375-6.078125 1.558594-1.589844 3.695313-2.480469 5.921875-2.457031 18.851563 0 34.136719 15.28125 34.136719 34.132812v11.949219c-62.765625 21.476562-95.292969 54.492187-109.109375 72.359375-6.757813 8.878906-10.3984375 19.734375-10.359375 30.890625v72.535156c0 4.710937 3.820312 8.53125 8.535156 8.53125 4.710938 0 8.53125-3.820313 8.53125-8.53125v-32.425781c5.417969-11.8125 53.617188-104.109375 238.933594-104.109375 185.320312 0 233.523438 92.289062 238.933594 104.109375v32.425781c0 4.710937 3.820312 8.53125 8.535156 8.53125 4.710938 0 8.53125-3.820313 8.53125-8.53125v-72.535156c.039062-11.152344-3.601562-22.007813-10.359375-30.878907-13.816406-17.878906-46.34375-50.894531-109.105469-72.371093zm-179.203125-191.148438c0-16.121093 24.160157-46.078125 42.667969-64.851562 18.507812 18.773437 42.667969 48.714843 42.667969 64.851562 0 23.5625-19.101563 42.667969-42.667969 42.667969-23.5625 0-42.667969-19.105469-42.667969-42.667969zm42.667969 213.332031c-146.421875 0-212.0625 54.460938-238.933594 88.960938v-7.894531c-.039062-7.390625 2.359375-14.589844 6.828125-20.476563 20-25.902344 82.773438-86.1875 232.105469-86.1875s212.105469 60.285156 232.105469 86.1875c4.46875 5.886719 6.867187 13.085938 6.828125 20.476563v7.902343c-26.871094-34.507812-92.511719-88.96875-238.933594-88.96875zm0 0"
                      />
                      <path
                        d="m264.535156 102.398438c0-4.710938-3.820312-8.53125-8.535156-8.53125-4.566406-.03125-8.3125-3.625-8.53125-8.183594-.269531-4.667969-4.179688-8.289063-8.851562-8.203125-2.265626.082031-4.402344 1.0625-5.945313 2.726562-1.542969 1.660157-2.359375 3.867188-2.273437 6.132813.496093 13.765625 11.828124 24.652344 25.601562 24.59375 4.714844 0 8.535156-3.820313 8.535156-8.535156zm0 0"
                      />
                    </svg>